<?xml version="1.0" standalone="no"?>
<!DOCTYPE svg PUBLIC "-//W3C//DTD SVG 1.1//EN" "http://www.w3.org/Graphics/SVG/1.1/DTD/svg11.dtd" >
<svg xmlns="http://www.w3.org/2000/svg">
<metadata></metadata>
<defs>
<font id="sephora_serif_june26BkIt" horiz-adv-x="632" >
<font-face units-per-em="2048" ascent="1638" descent="-410" />
<missing-glyph horiz-adv-x="417" />
<glyph horiz-adv-x="0" />
<glyph horiz-adv-x="682" />
<glyph unicode=" "  horiz-adv-x="417" />
<glyph unicode="&#x09;" horiz-adv-x="417" />
<glyph unicode="&#xa0;" horiz-adv-x="417" />
<glyph unicode="!" horiz-adv-x="598" d="M127 117q11 59 52.5 94t99.5 35q59 0 87.5 -35.5t18.5 -93.5t-52.5 -93.5t-99.5 -35.5q-59 0 -87.5 35.5t-18.5 93.5zM305 432q30 161 42.5 312t11 243t0.5 187.5t14 158.5q24 142 127 142q104 0 78 -142q-14 -78 -59 -205t-100.5 -308t-94.5 -388h-19z" />
<glyph unicode="&#x22;" horiz-adv-x="690" d="M231 1325q9 59 41 90t78 31q53 0 80.5 -33t18.5 -94q-7 -39 -29 -81t-46 -75t-48.5 -88t-34.5 -117h-21q11 63 4.5 116.5t-19.5 86.5t-22 76.5t-2 87.5zM530 1323q9 61 41 92t78 31q53 0 80.5 -33t18.5 -96q-8 -47 -41 -99t-68.5 -116.5t-48.5 -143.5h-21 q11 63 4.5 116.5t-19 86t-21.5 76t-3 86.5z" />
<glyph unicode="#" horiz-adv-x="1374" d="M74 453l4 26h315l84 477h-332l5 27h333l80 451h94l-79 -451h401l80 451h94l-80 -451h297l-4 -27h-299l-84 -477h315l-4 -26h-315l-80 -453h-94l80 453h-402l-80 -453h-94l80 453h-315zM487 479h402l84 477h-402z" />
<glyph unicode="$" horiz-adv-x="991" d="M41 270q10 57 46 91t83 34q31 0 55.5 -15.5t34.5 -43.5q-28 -18 -48 -56t-23 -83t12 -87t63.5 -72.5t124.5 -35.5l111 623q-123 89 -167 132q-123 120 -114 271q2 23 6 47q18 100 79.5 169.5t145 100.5t181.5 31l2 -2l24 142h27l-25 -142q160 -7 249 -84.5t73 -175.5 q-8 -42 -36.5 -67t-72.5 -25q-38 0 -65.5 15.5t-34.5 41.5q29 29 41 72.5t3.5 86t-50 75.5t-111.5 39l-92 -523q19 -14 50.5 -35.5t52 -35.5t50 -36t48.5 -39.5t42 -42t37 -47.5t27.5 -53t18.5 -60.5t5 -67.5t-7 -78q-28 -154 -157.5 -255.5t-309.5 -101.5h-8l-23 -127h-27 l23 130q-97 4 -170.5 31.5t-113 69.5t-55 90.5t-5.5 98.5zM381 1153q-9 -69 12 -127.5t55.5 -97.5t90.5 -82l90 508h-8q-108 0 -167.5 -54t-72.5 -147zM416 0h8q120 0 204.5 65.5t104.5 178.5q4 26 4.5 50.5t-3.5 46.5t-10 42t-16.5 39t-21 35.5t-26.5 33.5t-30 31t-33.5 30 t-35.5 28t-37 28z" />
<glyph unicode="'" horiz-adv-x="389" d="M231 1325q9 59 41 90t78 31q53 0 80.5 -33t18.5 -94q-7 -39 -29 -81t-46 -75t-48.5 -88t-34.5 -117h-21q11 63 4.5 116.5t-19.5 86.5t-22 76.5t-2 87.5z" />
<glyph unicode="(" horiz-adv-x="833" d="M167 131q-26 187 9 404q56 314 238 572t450 398l8 -6q-191 -148 -323.5 -395t-186.5 -551q-55 -306 -5.5 -574t190.5 -413l-12 -6q-151 84 -246.5 234t-121.5 337z" />
<glyph unicode=")" horiz-adv-x="833" d="M-39 -440q192 149 324.5 396t185.5 550q55 306 6 574t-190 413l14 6q226 -126 320 -389t36 -586q-56 -314 -238 -572t-450 -398z" />
<glyph unicode="*" horiz-adv-x="755" d="M180 1261.5q-14 27.5 2 57.5q15 31 48 43.5t75 -0.5q31 -10 56.5 -27.5t67 -54t69.5 -57.5q-4 34 -11.5 76.5t-10.5 62t-5 54.5t4 54q7 47 31.5 73t58.5 26q33 0 50 -25.5t10 -70.5q-6 -35 -20 -68t-44 -90t-47 -94q38 23 90.5 58.5t84.5 53.5t65 27q47 15 75 4.5 t33 -43.5q5 -31 -18 -59t-68 -43q-27 -9 -57.5 -12.5t-54 -3.5t-70 1t-80.5 0q29 -25 71.5 -58t65 -54t37.5 -48q43 -78 -24 -122q-29 -20 -60 -12t-51 44q-16 27 -23.5 59t-14.5 87t-15 94q-18 -35 -45.5 -93t-45 -88t-42.5 -57q-73 -79 -123 -36q-24 18 -20.5 51.5 t36.5 70.5q25 28 54 49.5t85 56.5t90 58q-35 1 -79.5 0t-68.5 -1.5t-52.5 3t-52.5 11.5q-42 15 -56 42.5z" />
<glyph unicode="," horiz-adv-x="485" d="M43 -209q103 25 164.5 82t64.5 129q-21 -12 -45 -12q-53 0 -80 39t-16 98q9 50 45 79.5t88 29.5q64 0 101 -59t14 -152q-23 -87 -113 -157.5t-219 -88.5z" />
<glyph unicode="-" d="M121 588l10 71h385l-10 -71h-385z" />
<glyph unicode="." horiz-adv-x="548" d="M125 117q10 58 52 93.5t99 35.5q59 0 88 -35.5t19 -93.5q-11 -59 -52.5 -94t-99.5 -35q-59 0 -87.5 35.5t-18.5 93.5z" />
<glyph unicode="/" horiz-adv-x="858" d="M-57 -266l936 1782h69l-936 -1782h-69z" />
<glyph unicode="0" horiz-adv-x="1155" d="M92 705q65 343 242 545t420 202q159 0 259.5 -92t127.5 -254t-11 -383q-66 -342 -235.5 -540.5t-413.5 -198.5q-242 0 -347 194t-42 527zM304 219q59 -205 218 -205q142 0 235 160t150 459q44 246 34 421t-71.5 271t-164.5 96q-72 0 -134 -46t-110 -132t-85 -199.5 t-65 -257.5q-66 -362 -7 -567z" />
<glyph unicode="1" horiz-adv-x="765" d="M57 0l2 16q76 0 116 13.5t59.5 43.5t31.5 91l185 1059q-118 -75 -312 -84v16q150 20 241.5 69.5t180.5 155.5l41 54l70 -11l-219 -1251q-18 -88 15.5 -122t127.5 -34v-16h-539z" />
<glyph unicode="2" horiz-adv-x="1040" d="M43 121q1 82 37.5 158.5t96 139t132 124t147.5 125t140 130t114 152t64 178.5q23 128 -31.5 216t-171.5 88q-61 0 -106 -28.5t-65.5 -71t-18 -95t30.5 -98.5q-12 -30 -41.5 -48t-65.5 -18q-45 0 -71.5 38t-16.5 101q17 106 121 174t242 68q190 0 303.5 -108.5 t79.5 -280.5q-13 -70 -50 -131.5t-88 -109t-113.5 -91t-130 -82.5t-134.5 -77.5t-129.5 -81.5t-113 -89.5t-86.5 -106.5t-48 -128q47 70 117 95.5t149 12.5t154 -36.5t156.5 -47.5t131.5 -24q43 0 73 24.5t35 69t-28 107.5l12 6q54 -102 44 -188t-70.5 -142.5t-143.5 -56.5 q-54 0 -129.5 28t-139 62t-135 62t-116.5 28q-46 0 -78 -25t-32 -63q0 -28 17.5 -44.5t55.5 -12.5q4 -16 -7.5 -24t-29.5 -5q-63 10 -63 127z" />
<glyph unicode="3" horiz-adv-x="1083" d="M43 258q9 51 44 82t79 31q40 0 67 -20.5t33 -55.5q-31 -13 -50.5 -47.5t-18 -75.5t19.5 -79.5t65.5 -64.5t116.5 -26q141 0 229.5 101t108.5 259q10 80 -4.5 147t-52 119.5t-107.5 81t-165 25.5l-2 15q168 42 264 143t108 258q9 123 -40.5 194.5t-151.5 71.5 q-60 0 -103.5 -26t-60 -64.5t-11.5 -83.5t35 -82q-15 -31 -46 -49t-66 -18q-50 0 -73 34.5t-17 83.5q14 96 120 162t252 66q169 0 261.5 -82.5t78.5 -218.5q-10 -96 -79 -178t-167.5 -132t-211.5 -71q212 0 334.5 -104.5t101.5 -276.5q-23 -182 -167.5 -291t-356.5 -109 q-101 0 -178.5 26t-119.5 68t-60 90.5t-9 96.5z" />
<glyph unicode="4" horiz-adv-x="1069" d="M49 440q158 144 272.5 281t169 238.5t77.5 171.5t22 116q0 84 -66 94q5 47 40 78t87 31q54 0 88.5 -34t34.5 -91q0 -65 -30 -138t-104 -177t-215 -247.5t-349 -324.5h520l49 283l197 127l10 -8l-70 -402h172l-4 -20h-172l-43 -250q-17 -86 14.5 -119t120.5 -33l-2 -16 h-512l2 16q101 0 136.5 28t54.5 116l45 258h-543z" />
<glyph unicode="5" horiz-adv-x="1067" d="M23 256q9 53 42.5 84t79.5 31q35 0 61.5 -19.5t33.5 -56.5q-24 -10 -41.5 -31.5t-24.5 -48t-6 -56t15.5 -57.5t38.5 -50.5t64 -36t91 -13.5q136 0 230 98t126 279q33 200 -34 322t-205 122q-104 0 -203 -61l-12 4l96 485q28 150 -6 181q8 16 24 16q44 -3 13 -150 q78 152 215 152q57 0 170.5 -37t175.5 -37q55 0 83.5 25.5t14.5 81.5h12q37 -118 -15 -201.5t-167 -83.5q-46 0 -97 21.5t-89 47t-85.5 47t-86.5 21.5q-61 0 -100 -41t-52 -108l-82 -393q125 67 262 67q203 -1 303 -124.5t70 -317.5q-17 -111 -69.5 -197.5t-128 -138.5 t-164.5 -78.5t-187 -26.5q-84 0 -152 17.5t-110.5 46t-69 65.5t-34 75t-0.5 75z" />
<glyph unicode="6" horiz-adv-x="1169" d="M166 717q22 117 62 223.5t100 200.5t133.5 163t168.5 108.5t199 39.5q145 0 220 -66t59 -149q-9 -43 -41.5 -67.5t-77.5 -24.5q-40 0 -66 18t-32 47q67 41 67 107q2 47 -30 81t-105 34q-168 0 -286.5 -198t-176.5 -558q-4 -25 -14 -107q48 145 163 239.5t251 94.5 q169 0 256.5 -129.5t48.5 -339.5q-37 -211 -177.5 -329.5t-330.5 -118.5q-233 0 -345 189.5t-46 541.5zM338 485q-15 -229 41 -351t178 -122q119 0 203 105.5t112 292.5q30 190 -28 296.5t-182 106.5q-111 0 -202.5 -89t-121.5 -239z" />
<glyph unicode="7" horiz-adv-x="1024" d="M203 186q19 103 89 219.5t164.5 226.5t191.5 217t188 226.5t135 220.5q-29 -49 -89.5 -83.5t-127.5 -34.5q-65 0 -201.5 46t-210.5 46q-55 0 -72.5 -28t11.5 -83l-11 -2q-47 69 -48 137t43.5 111t121.5 43q57 0 127 -23t125 -51t121.5 -51t118.5 -23q45 0 73.5 21.5 t28.5 54.5q0 35 -37 47q4 19 23 19q17 0 28 -20t11 -52q-1 -82 -61 -201.5t-146 -244.5t-171.5 -252t-145.5 -257t-60 -227q0 -84 55 -112q-19 -44 -57 -69t-84 -25q-71 0 -109.5 56t-23.5 148z" />
<glyph unicode="8" horiz-adv-x="1077" d="M82 358q18 147 123.5 241.5t267.5 135.5q-54 45 -91 84.5t-70 91.5t-44.5 114t-1.5 132q19 134 122 215.5t253 81.5q167 0 269 -93.5t87 -232.5q-28 -221 -323 -321q12 -10 37 -29q74 -58 111.5 -91.5t85.5 -92t63.5 -123.5t3.5 -143q-22 -146 -153.5 -247t-313.5 -101 q-130 0 -231 45t-154.5 132.5t-40.5 200.5zM256 371q-19 -159 56 -265t200 -106q107 0 187.5 71t95.5 185q9 56 -2.5 108t-31.5 90t-61 82t-73 71.5t-85 70.5q-36 29 -53 43q-99 -55 -159.5 -144t-73.5 -206zM435 1110.5q12 -62.5 48 -115t74.5 -90.5t97.5 -84 q91 61 130 136t49 182q10 122 -43 208.5t-154 86.5q-76 0 -130 -49t-71 -140q-13 -72 -1 -134.5z" />
<glyph unicode="9" horiz-adv-x="1144" d="M113 203q6 46 37 71t77 25q39 0 65 -20t32 -48q-65 -32 -62 -104q0 -49 40 -84t122 -35q104 0 193 93.5t147.5 249t85.5 351.5q5 34 14 115q-51 -127 -146.5 -203.5t-217.5 -76.5q-157 0 -253 128.5t-69 327.5q31 221 159 341t310 120q113 0 199.5 -46.5t143 -141 t71.5 -239.5t-14 -341q-20 -132 -70.5 -254t-128.5 -222.5t-192 -161t-246 -60.5q-149 0 -228.5 66t-68.5 149zM373 1030q-21 -189 44 -296t183 -107q93 0 163.5 69.5t104.5 194.5q15 262 -46.5 402.5t-180.5 140.5q-106 0 -177 -107.5t-91 -296.5z" />
<glyph unicode=":" horiz-adv-x="577" d="M104 117q10 58 52.5 93.5t99.5 35.5q59 0 87.5 -35.5t18.5 -93.5q-11 -59 -52 -94t-99 -35q-59 0 -88 35.5t-19 93.5zM236 834q9 58 50.5 93.5t100.5 35.5q58 0 87 -35t20 -94q-10 -58 -52.5 -93.5t-101.5 -35.5q-58 0 -86.5 35t-17.5 94z" />
<glyph unicode=";" horiz-adv-x="579" d="M43 -209q103 26 165.5 83.5t65.5 129.5q-24 -12 -47 -12q-52 0 -79.5 38t-16.5 95q9 51 45.5 81t87.5 30q64 0 101 -59t14 -152q-23 -87 -113 -157.5t-219 -88.5zM252 834q9 58 50.5 93.5t100.5 35.5q58 0 87 -35t20 -94q-10 -58 -52.5 -93.5t-101.5 -35.5 q-57 0 -85.5 35.5t-18.5 93.5z" />
<glyph unicode="?" horiz-adv-x="839" d="M162 1241q15 91 109.5 152t230.5 61q172 0 273 -78t77 -217q-9 -54 -41.5 -104.5t-76.5 -90t-95.5 -77.5t-101.5 -75.5t-91.5 -75t-67.5 -84t-28 -95.5q-3 -67 43 -119l-12 -6q-45 25 -71.5 63.5t-26.5 79.5q0 55 19.5 108t50.5 97t69.5 86.5t78.5 84.5t74.5 83t60 89.5 t32.5 97.5q14 87 -35.5 150t-145.5 63q-58 0 -99 -27t-55 -64.5t-6 -78t40 -66.5q-14 -35 -46 -56.5t-73 -21.5q-46 0 -70.5 33t-15.5 88zM207 117q11 59 52 94t99 35q59 0 88 -35.5t19 -93.5t-52.5 -93.5t-101.5 -35.5q-57 0 -85.5 35.5t-18.5 93.5z" />
<glyph unicode="A" horiz-adv-x="1396" d="M-51 0l4 16q61 0 111 46.5t112 160.5l660 1215l106 4l240 -1278q19 -92 47 -120t106 -28l-4 -16h-524l4 16q107 0 145 32q28 24 28 75q0 16 -3 35l-51 303h-592l-127 -232q-44 -79 -44 -128q1 -18 7 -33q22 -52 129 -52l-4 -16h-350zM352 487h572l-136 803z" />
<glyph unicode="B" horiz-adv-x="1112" d="M-55 0l2 16q80 0 108 28.5t43 115.5l195 1106q6 30 6 54q1 43 -19 64q-30 33 -120 33v17q139 0 285.5 2t197.5 2q236 0 341 -92q82 -72 82 -191q0 -34 -7 -72q-22 -132 -125.5 -218.5t-276.5 -112.5q195 -18 292 -110q76 -73 77 -192q0 -32 -6 -67q-31 -190 -187 -287.5 t-432 -97.5q-51 0 -203 1t-253 1zM295 184q-7 -37 -7 -65q0 -46 18 -67q30 -34 122 -34q161 0 259.5 87.5t129.5 279.5q8 51 8 94q0 115 -56 175q-77 83 -271 83h-105zM397 756h129q295 0 351 346q8 47 8 86q0 229 -250 229q-58 0 -123 -8z" />
<glyph unicode="C" horiz-adv-x="1146" d="M82 394q-9 56 -9 120q0 88 17 191q27 156 89.5 292.5t151.5 238t208 160t252 58.5q112 0 191 -43t109 -109q18 -41 18 -84q0 -27 -7 -55q-10 -38 -45 -68t-80 -30q-42 0 -71.5 25.5t-31.5 58.5q67 41 78 117q2 13 2 25q0 53 -40 89q-48 44 -138 45q-174 0 -304 -164 t-183 -477q-17 -105 -17 -196q0 -179 67 -301q101 -183 304 -183q236 0 434 238l8 -14q-96 -160 -241 -252t-316 -92q-114 0 -207 46.5t-155 138t-84 225.5z" />
<glyph unicode="D" horiz-adv-x="1429" d="M-55 0v16q80 0 109 28t44 116l197 1106q5 28 5 50q0 46 -21 68q-31 32 -119 33v17h559q368 0 530 -186q117 -134 116 -355q0 -86 -17 -186q-22 -122 -64.5 -223t-96.5 -172.5t-123.5 -126.5t-140 -89t-152 -55.5t-153 -30.5t-149.5 -10h-301h-223zM289 154l2 2 q-4 -17 -4 -32q0 -45 34 -69q45 -32 164 -32q262 0 429.5 168t226.5 505q22 127 22 231q-1 188 -73 304q-114 180 -394 180q-84 0 -186 -10z" />
<glyph unicode="E" horiz-adv-x="1093" d="M-55 0v16q80 0 109 28t44 116l197 1106q5 28 5 50q0 46 -21 68q-31 32 -119 33v17h921l-63 -347h-17q-8 132 -38.5 201t-90.5 96t-170 27h-190l-117 -659h142q123 0 181 48t97 177h19l-80 -479h-19q-1 70 -9 111.5t-30.5 70t-61 39t-102.5 10.5h-141l-125 -706h164 q131 0 217 29t158.5 106.5t138.5 220.5l17 -2l-111 -377h-905z" />
<glyph unicode="F" horiz-adv-x="1032" d="M-31 0l2 16q80 0 108 29t46 119l192 1102q6 31 6 55q1 43 -19 63q-30 32 -120 33v17h897l-63 -361h-17q-11 196 -58.5 269t-170.5 73h-235l-121 -700h186q90 0 138 45t98 172h16l-84 -481h-16q-2 56 -6 91.5t-13.5 67.5t-26 49t-43 27t-65.5 10h-188l-88 -512 q-6 -31 -6 -56q0 -52 26 -76q40 -36 145 -36l-2 -16h-518z" />
<glyph unicode="G" horiz-adv-x="1431" d="M130 383q-12 61 -12 131q0 79 15 170q58 344 279 558q221 212 533 212h3q99 0 177 -24.5t122 -63.5t61 -88q11 -27 11 -56q0 -21 -6 -42q-11 -47 -47.5 -73t-81.5 -26t-74 22t-29 60q28 15 51.5 42t30.5 61q3 14 3 26q0 54 -49 90q-60 45 -175 45q-214 0 -372 -170.5 t-224 -527.5q-26 -144 -26 -259q0 -166 54 -272q91 -180 326 -180q159 0 263 62l73 412q9 40 9 70q0 22 -5 38q-10 41 -50.5 57.5t-125.5 16.5l2 16h518l-2 -16q-72 0 -106 -33t-49 -123l-86 -489q-27 22 -86 22q-42 0 -179.5 -34.5t-232.5 -34.5q-136 0 -243 46t-176.5 135 t-93.5 220z" />
<glyph unicode="H" horiz-adv-x="1486" d="M12 0v16q80 0 109.5 28t44.5 116l196 1106q5 28 5 50q0 46 -21 68q-31 32 -119 33v17h482v-17q-81 0 -110 -28t-44 -115l-96 -541h651l94 533q5 28 5 50q0 46 -21 68q-31 32 -119 33v17h481v-17q-81 0 -109.5 -27.5t-43.5 -115.5l-197 -1106q-5 -28 -5 -50q0 -46 21 -69 q31 -33 119 -33v-16h-481v16q80 0 109.5 28t44.5 116l98 549h-651l-97 -541q-5 -28 -5 -50q-1 -47 21 -69q32 -33 120 -33v-16h-482z" />
<glyph unicode="I" horiz-adv-x="708" d="M35 0v16q80 0 109 28t44 116l197 1106q5 28 5 50q0 46 -21 68q-31 32 -119 33v17h481v-17q-81 0 -109.5 -27.5t-43.5 -115.5l-195 -1106q-5 -29 -5 -51q0 -46 20 -68q30 -33 118 -33v-16h-481z" />
<glyph unicode="J" horiz-adv-x="669" d="M-358 -250q9 58 48.5 90.5t90.5 32.5q49 0 75 -30q23 -28 23 -64v-6q-27 -11 -49 -34t-30 -50t-5.5 -51.5t24.5 -41t60 -16.5q101 0 168.5 103t108.5 329l219 1245q5 28 5 51q0 49 -22 74q-33 35 -129 35v17h494v-17q-80 0 -109.5 -28t-44.5 -115l-204 -1153 q-96 -561 -496 -561q-131 0 -187 56q-43 43 -43 101q0 16 3 33z" />
<glyph unicode="K" horiz-adv-x="1335" d="M-55 0v16q80 0 109 28t44 116l197 1106q5 28 5 50q0 46 -21 68q-31 32 -119 33v17h481v-17q-81 0 -110 -28t-44 -115l-143 -809l672 739q84 93 84 146q0 6 -2 12q-12 54 -121 55l4 17h377l-4 -17q-66 -6 -139 -59t-181 -172l-311 -338l332 -692q35 -78 73 -109t95 -31 l-4 -16h-496l4 16q107 0 135 37q12 16 12 37q0 29 -22 68l-268 538l-246 -268l-45 -260q-5 -29 -5 -51q0 -46 20 -68q30 -33 118 -33v-16h-481z" />
<glyph unicode="L" horiz-adv-x="1007" d="M-88 0l4 16q83 0 118 29.5t50 114.5l195 1104q6 33 6 59q0 42 -16 62q-25 32 -111 32l4 17h483l-4 -17q-83 0 -118 -29t-50 -114l-201 -1139q-3 -16 -3 -30q-1 -41 27 -61q36 -26 136 -26q94 0 162 32.5t139 117.5t158 244l12 -2l-133 -410h-858z" />
<glyph unicode="M" horiz-adv-x="1886" d="M-55 0l2 16q77 0 108.5 34t61.5 130l340 1082q13 43 13 73q0 31 -14 48q-28 34 -118 34l2 17h289l243 -1186l664 1186h248v-17q-83 0 -114.5 -30.5t-31.5 -118.5l-2 -1092q2 -93 33 -126.5t117 -33.5l-2 -16h-486v16q83 0 114 31q30 30 30 112v5v1048l-676 -1212h-47 l-254 1219l-326 -1035q-14 -44 -14 -75q0 -33 15 -53q29 -40 120 -40l-2 -16h-313z" />
<glyph unicode="N" horiz-adv-x="1327" d="M-55 0l2 16q73 0 108 41.5t54 143.5l182 1030q8 44 8 76q0 47 -17 71q-29 40 -120 39v17h209l663 -1166l170 971q7 35 7 63q-1 50 -23 76q-36 41 -131 41l2 17h336l-2 -17q-77 0 -111.5 -38.5t-52.5 -135.5l-219 -1245h-35l-672 1180l-172 -981q-7 -35 -7 -63 q0 -48 21 -76q33 -44 127 -44l-2 -16h-325z" />
<glyph unicode="O" horiz-adv-x="1589" d="M96 719q60 333 292 536t550 203q208 0 348 -91t194 -257q32 -97 31 -212q0 -82 -16 -173q-62 -351 -285.5 -550.5t-543.5 -199.5q-318 -1 -474 199q-113 144 -113 363q0 85 17 182zM316 353q36 -170 138 -258.5t259 -88.5q215 0 356 166.5t195 476.5q24 138 24 254 q0 193 -67 320q-107 204 -338 204q-216 0 -360.5 -171t-198.5 -484q-24 -136 -23 -249q-1 -93 15 -170z" />
<glyph unicode="P" horiz-adv-x="1153" d="M-55 0v16q81 0 109 28.5t46 119.5l193 1102q6 31 6 55q1 43 -19 63q-30 32 -120 33v17h499q285 0 407 -110q94 -85 94 -231q0 -44 -9 -94q-41 -228 -208.5 -346t-440.5 -118q-88 0 -140 12l-65 -375q-6 -29 -6 -51q0 -47 26 -71q38 -34 150 -34v-16h-522zM373 604 q60 -47 149 -47q173 0 278 101.5t144 322.5q14 79 14 143q0 120 -49 188q-75 104 -278 103q-51 0 -119 -10z" />
<glyph unicode="Q" horiz-adv-x="1589" d="M96 719q60 333 292 536t550 203q208 0 347.5 -91t194.5 -257q31 -97 31 -212q0 -82 -16 -173q-62 -351 -285.5 -550.5t-543.5 -199.5q-318 0 -474 199q-113 144 -113 363q0 85 17 182zM316 353q36 -170 138 -258.5t259 -88.5q215 0 356 166.5t195 476.5q24 138 24 254 q0 192 -67 320q-107 204 -338 204q-216 0 -360.5 -171t-198.5 -484q-24 -136 -24 -249q0 -93 16 -170z" />
<glyph unicode="R" horiz-adv-x="1300" d="M-51 0v16q80 0 109 28.5t44 115.5l195 1106q5 28 5 50q0 46 -21 68q-31 32 -121 33v17h506q262 0 379 -102q88 -77 89 -206q0 -42 -10 -90q-26 -150 -151 -238t-340 -110q89 -9 150 -34t98.5 -69.5t58 -98t33.5 -132.5q26 -164 47 -214q32 -79 96 -79q40 0 64 12t49 44 l8 -6q-30 -59 -99.5 -94t-119.5 -35h-7q-69 0 -114 20q-47 21 -74 80.5t-36.5 99t-24.5 139.5q-3 15 -4 23q-20 132 -37 178q-38 105 -140 138q-56 18 -135 18h-63l-90 -510q-5 -27 -5 -49q0 -47 22 -70q32 -33 120 -33v-16h-481zM387 700h72q218 0 324 78.5t137 257.5 q11 63 11 114q0 111 -50 174q-73 91 -244 91q-31 0 -125 -12z" />
<glyph unicode="S" horiz-adv-x="987" d="M35 299q10 54 46 85.5t83 31.5q71 0 92 -60q-23 -16 -40 -48q-18 -32 -25 -72q-3 -17 -3 -35q0 -23 5 -47q9 -42 32.5 -76t73.5 -56t119 -22q120 0 205.5 69.5t107.5 186.5q5 27 5 52q0 27 -6 53q-10 50 -35.5 89.5t-62 79t-79.5 72.5t-88 70.5t-87 73t-77.5 79.5 t-59.5 90.5t-32 106.5q-3 24 -3 48q0 37 7 77q27 143 141.5 225t259.5 82q154 0 248 -72q78 -60 79 -134q0 -14 -3 -29q-8 -41 -35.5 -67t-71.5 -26q-37 0 -62.5 16t-33.5 42q27 26 39 68q7 24 7 47q1 18 -3 35q-8 41 -54.5 70.5t-125.5 29.5q-97 0 -155.5 -56.5 t-73.5 -138.5q-5 -30 -5 -58q0 -27 4 -52q10 -52 35 -92.5t61 -79.5t78.5 -71.5t87 -68t87 -69.5t78 -76.5t59.5 -88t32 -103.5q4 -24 4 -50q0 -36 -7 -76q-30 -163 -161.5 -270t-311.5 -107q-82 0 -150.5 19.5t-113 52t-73 74.5t-37.5 87q-5 24 -5 47q0 21 4 42z" />
<glyph unicode="T" horiz-adv-x="1193" d="M113 1085l65 349h1092l-58 -349h-16q-13 137 -38.5 205.5t-75 96.5t-144.5 28h-119l-225 -1253q-4 -23 -4 -42q0 -49 24 -72q33 -32 127 -32l-2 -16h-510l2 16q88 0 124 31t51 117l221 1251h-131q-135 0 -207 -65t-160 -265h-16z" />
<glyph unicode="U" horiz-adv-x="1484" d="M207 1417v17h481v-17q-80 0 -109 -28t-44 -115l-129 -729q-18 -102 -18 -182q0 -134 49 -209q78 -121 304 -121q215 0 353.5 131.5t183.5 388.5l123 704q6 32 6 57q0 46 -20 68q-31 35 -119 35l2 17h313v-17q-80 0 -110.5 -31t-45.5 -124l-124 -711q-52 -296 -209.5 -436 t-429.5 -140q-270 0 -386 138q-82 97 -82 263q0 70 15 152l129 738q6 31 6 55q0 43 -20 63q-30 32 -119 33z" />
<glyph unicode="V" horiz-adv-x="1415" d="M115 1417l4 17h504l-5 -17q-92 -1 -127 -33q-25 -23 -25 -65q0 -18 5 -41l231 -1104l627 1096q28 51 28 84q1 16 -7 28q-22 34 -115 35l4 17h311l-4 -17q-67 0 -102.5 -27.5t-83.5 -111.5l-723 -1278h-80l-287 1270q-21 92 -49 119.5t-106 27.5z" />
<glyph unicode="W" horiz-adv-x="2177" d="M115 1415l4 19h514l-4 -19q-55 0 -87.5 -11t-52.5 -40q-18 -26 -18 -70v-10q2 -50 16 -129l187 -913l463 784l-23 117q-32 162 -72.5 218t-111.5 56l4 17h516l-4 -17q-56 0 -88 -11q-32 -12 -52 -41q-18 -26 -18 -71v-9q2 -51 15 -130l176 -924l522 912q43 73 61 122 q14 38 14 68q0 9 -1 17q-5 36 -41 51.5t-105 15.5l4 17h379l-4 -17q-66 0 -119 -55t-149 -221l-654 -1141h-43l-194 975l-571 -975h-41l-236 1143q-23 109 -49.5 169t-58 81.5t-78.5 21.5z" />
<glyph unicode="X" horiz-adv-x="1374" d="M-121 0l4 16q59 2 108 33t132 123l477 520l-293 586q-41 88 -72 113.5t-96 25.5l4 17h498l-4 -17q-92 -1 -129 -31q-20 -17 -20 -43q0 -23 14 -53l252 -504l426 486q46 52 52.5 84.5t-23.5 46.5t-95 14l4 17h338l-4 -17q-59 0 -106.5 -31t-131.5 -124l-446 -504l301 -602 q43 -87 75 -113.5t95 -26.5l-4 -16h-502l4 16q91 0 129 32q21 17 20 44q0 22 -14 51l-260 521l-456 -502q-54 -63 -54 -97q0 -8 4 -15q16 -34 115 -34l-4 -16h-338z" />
<glyph unicode="Y" horiz-adv-x="1337" d="M121 1417l4 17h518l-4 -17q-152 0 -152 -76q0 -25 17 -59l272 -569l461 563q42 52 43.5 83.5t-29.5 44.5t-94 13l4 17h305l-4 -17q-51 0 -87.5 -26.5t-106.5 -108.5l-486 -596l-90 -516q-6 -33 -6 -59q0 -43 16 -63q26 -32 113 -32l-4 -16h-485l4 16q83 0 118 29.5 t50 114.5l86 493l-291 625q-40 84 -73.5 111.5t-98.5 27.5z" />
<glyph unicode="Z" horiz-adv-x="1148" d="M-59 0v35l1042 1374h-481q-88 0 -148.5 -69t-134.5 -261h-14l47 355h930v-37l-1045 -1374h510q125 0 197 72t147 272h17l-50 -367h-1017z" />
<glyph unicode="[" horiz-adv-x="790" d="M37 -401l332 1876h399l-6 -27h-227l-324 -1823h231l-6 -26h-399z" />
<glyph unicode="\" horiz-adv-x="1378" d="M209 1516h67l936 -1782h-67z" />
<glyph unicode="]" horiz-adv-x="790" d="M23 -401l6 26h227l324 1823h-232l6 27h400l-332 -1876h-399z" />
<glyph unicode="^" horiz-adv-x="1228" />
<glyph unicode="_" horiz-adv-x="1280" d="M66 -59l12 59h995l-12 -59h-995z" />
<glyph unicode="a" horiz-adv-x="1107" d="M68 483q44 246 174.5 393.5t322.5 147.5q117 0 217 -51l179 51l8 -6l-135 -766q-9 -50 -9 -86q-1 -28 5 -46q12 -44 59 -44q54 0 103 59t87 156l13 -4q-37 -136 -119.5 -220.5t-177.5 -84.5q-101 0 -135 86q-17 42 -17 102q0 65 19 152q-65 -165 -154 -251.5t-197 -86.5 q-149 0 -217 132q-42 82 -41 205q0 74 15 162zM263 194q35 -112 132 -112q75 0 136 61t102.5 167t68.5 229.5t43 267.5q4 42 4 84q0 24 -1 47q-75 66 -168 66q-120 0 -200 -120t-116 -339q-18 -121 -18 -210q0 -86 17 -141z" />
<glyph unicode="b" horiz-adv-x="1056" d="M123 150l149 866q34 154 34 237q0 29 -4 49q-11 54 -73 54q-27 0 -63 -10l-2 22l364 111l4 -4q-13 -74 -25.5 -146.5t-27.5 -158.5t-24 -140l-68 -379q66 186 165 279.5t220 93.5q138 0 198 -130q37 -80 37 -194q0 -70 -14 -153q-43 -254 -191.5 -409.5t-359.5 -155.5 q-107 0 -199.5 46.5t-119.5 121.5zM293 117q24 -49 69 -74t97 -25q127 0 210 123t124 348q20 110 20 194q0 69 -13 121q-30 116 -126 116q-104 0 -190 -124.5t-136 -363.5z" />
<glyph unicode="c" horiz-adv-x="829" d="M68 477q23 152 88 275t169 197.5t228 74.5q120 0 185 -58q56 -50 56 -116q0 -10 -1 -21q-6 -52 -38 -79t-77 -27q-36 0 -60.5 18t-29.5 43q54 38 57 109q0 40 -24.5 72t-81.5 32q-109 0 -180.5 -119.5t-100.5 -326.5q-12 -84 -12 -154q0 -121 36 -199q56 -124 181 -124 q176 0 293 225l12 -6q-59 -149 -165.5 -230t-229.5 -81q-174 0 -258 129q-58 90 -58 231q0 63 11 135z" />
<glyph unicode="d" horiz-adv-x="1091" d="M68 485q44 245 171.5 392t315.5 147q119 0 211 -55l14 82q30 145 30 218q0 33 -6 52q-13 40 -79 40q-31 0 -74 -9l-2 14l379 111l6 -7l-215 -1218q-9 -50 -9 -86q0 -28 6 -46q12 -44 58 -44q52 0 103 58.5t88 156.5l12 -4q-37 -137 -120 -221t-181 -84q-147 0 -147 183 q0 56 14 128q-131 -309 -336 -309q-143 0 -211 134q-43 85 -43 209q0 72 15 158zM264 545q-19 -111 -19 -196q0 -89 21 -149q40 -118 133 -118q128 0 222 218t137 620q-33 39 -83.5 61.5t-101.5 22.5q-117 0 -195 -119.5t-114 -339.5z" />
<glyph unicode="e" horiz-adv-x="880" d="M72 502q38 229 170.5 375.5t316.5 146.5q143 0 225 -82q64 -65 65 -160q0 -26 -5 -53q-28 -148 -190 -222q-96 -44 -222 -44q-85 0 -184 20q-3 -38 -3 -74q0 -143 49 -228q61 -107 189 -107q188 0 322 225l12 -6q-72 -153 -184 -232t-244 -79q-116 0 -196.5 59 t-114.5 178q-19 65 -19 144q0 65 13 139zM252 518q81 -22 162 -22q124 0 185 61.5t81 179.5q6 39 6 73q0 66 -23 115q-35 74 -122 74q-103 0 -175 -112.5t-106 -317.5q-4 -17 -8 -51z" />
<glyph unicode="f" horiz-adv-x="706" d="M-309 -285q5 44 33.5 73.5t68.5 29.5q34 0 62.5 -20t29.5 -46q-38 -23 -51 -66q-5 -16 -5 -30q0 -25 15 -48q23 -34 78 -34q35 0 63.5 12t58 44.5t52.5 86.5t44 140.5t36 203.5l115 877h-178l2 18l182 31q38 241 154 375.5t282 134.5q100 0 165 -51q59 -45 59 -111 q0 -7 -1 -14q-3 -39 -33.5 -65.5t-70.5 -26.5q-34 0 -58 16.5t-32 44.5q37 23 49 66q4 15 4 29q0 27 -15 50q-24 35 -79 35q-174 0 -225 -376l-15 -99h281l4 -4l-25 -53h-266l-113 -815q-39 -288 -153.5 -431t-296.5 -143q-103 0 -165 45q-57 42 -57 108q0 6 1 13z" />
<glyph unicode="g" horiz-adv-x="999" d="M-39 -201q12 86 88.5 144t200.5 82q-73 27 -108 71q-26 32 -26 82q0 16 3 33q4 58 52.5 101.5t123.5 66.5q-76 40 -112 119q-25 55 -25 123q0 28 4 59q25 157 133.5 250.5t273.5 93.5q79 0 146 -25q49 89 116 136t136 47q61 0 97 -38q28 -29 28 -70q0 -10 -2 -21 q-7 -42 -34.5 -65t-66.5 -23q-34 0 -54 16.5t-20 44.5q24 14 29.5 34.5t-8.5 36t-41 15.5q-38 0 -80.5 -30t-81.5 -91q84 -38 121 -118q25 -55 25 -122q0 -31 -5 -65q-22 -156 -133.5 -251t-279.5 -95q-80 0 -146 29q-38 -18 -57.5 -46.5t-19.5 -58.5q-1 -21 6.5 -36.5 t29 -27.5t40.5 -19.5t62.5 -15t71.5 -11.5t89 -11q67 -10 104 -17t95 -26.5t86.5 -44t47.5 -67.5q13 -31 13 -68q0 -16 -2 -33q-14 -98 -92 -176t-196 -120t-253 -42q-186 0 -291 67q-90 59 -90 152q0 15 2 31zM111 -199q-1 -11 -1 -21q0 -88 68 -146q75 -64 199 -64 q144 0 240.5 72t107.5 182q1 7 1 13q0 24 -9 43q-11 24 -30 40t-53 28t-68 18.5t-83 13.5q-142 20 -202 36q-77 -25 -120 -85t-50 -130zM350 530q6 -75 41 -122.5t96 -47.5q163 0 197 304q6 60 6 113q0 29 -2 55q-5 76 -40 124t-97 48q-163 0 -199 -308q-4 -52 -4 -98 q0 -36 2 -68z" />
<glyph unicode="h" horiz-adv-x="1118" d="M74 0l192 1085q13 73 19 120q5 40 5 71v10q-1 34 -7 51.5t-22.5 25t-37.5 5.5t-55 -10l-4 14l344 105l6 -7q-7 -41 -34.5 -195t-43.5 -245l-71 -399q67 196 169.5 295.5t231.5 99.5q120 0 164 -83q26 -49 27 -121q0 -50 -13 -111l-96 -459q-12 -56 -12 -93q0 -23 4 -39 q12 -44 61 -44q108 0 191 215l14 -4q-37 -137 -120 -221t-183 -84q-89 0 -129 64q-23 37 -22 96q0 43 12 98l90 413q16 72 16 124q0 143 -117 143q-96 0 -186.5 -130.5t-138.5 -375.5l-74 -414h-180z" />
<glyph unicode="i" horiz-adv-x="593" d="M109 903v17l342 104l6 -6q-13 -72 -38 -215t-40 -228l-57 -323q-7 -44 -8 -76q0 -100 69 -100q52 0 102.5 66.5t79.5 148.5l13 -4q-35 -137 -115 -221t-178 -84q-91 0 -131 64q-25 39 -25 104q0 40 10 90l64 368q14 78 21 124.5t8 86.5t-4.5 58t-21.5 28.5t-38 8.5 t-59 -11zM289 1343q8 56 46.5 89.5t98.5 33.5q55 0 82 -31q21 -24 21 -62q0 -11 -2 -23q-7 -56 -47 -88.5t-99 -32.5q-55 1 -81 31q-20 23 -21 60q0 11 2 23z" />
<glyph unicode="j" horiz-adv-x="612" d="M-266 -264q5 58 37.5 92.5t85.5 34.5q45 0 72 -24.5t30 -57.5q-76 -26 -76 -113v-6q0 -33 22 -60q24 -28 68 -28q81 0 128.5 79t78.5 257l123 694q9 52 14 85t9 69.5t3.5 57t-5 42t-14 31t-25 16.5t-37.5 6t-51 -8v17l352 104l8 -6l-164 -924q-48 -275 -152.5 -409 t-283.5 -134q-99 0 -163 52q-60 49 -60 124v9zM389 1343q8 56 47 89.5t99 33.5q55 0 81 -31q21 -24 21 -61q0 -11 -2 -24q-7 -56 -47 -88.5t-99 -32.5q-55 0 -81 31q-21 23 -21 60q0 11 2 23z" />
<glyph unicode="k" horiz-adv-x="1079" d="M63 0l191 1085q13 73 19 119q6 43 6 77q-1 3 -1 5q0 35 -6 52t-22.5 24.5t-37.5 5.5t-56 -10l-2 14l342 105l6 -7q-74 -418 -78 -440l-76 -432q59 3 105.5 28t76.5 62.5t55 82.5t48.5 89.5t49.5 81t66 59.5t91 23q78 0 120 -40q38 -36 38 -90q0 -6 -1 -13q-6 -51 -36 -79 t-72 -28q-37 0 -63.5 22.5t-28.5 49.5q55 19 55 74q0 23 -13 38t-42 15q-44 0 -80 -33.5t-64.5 -84.5t-57.5 -104t-72 -98t-95 -61q64 -2 111.5 -31t75.5 -75t49 -100.5t37 -109t33 -99.5t43.5 -73t62.5 -28q100 0 184 215l14 -4q-37 -139 -114 -222t-172 -83 q-60 0 -102.5 29t-65.5 75.5t-39.5 103.5t-31.5 116t-34 109.5t-54 87.5t-85 46l-96 -549h-181z" />
<glyph unicode="l" horiz-adv-x="536" d="M104 252l148 833q14 87 20 139q4 36 4 63v23q-2 34 -19 46t-40 12t-65 -10l-2 14l344 105l6 -7q-7 -41 -34.5 -195t-43.5 -245l-135 -766q-9 -52 -10 -90q0 -98 65 -98q54 0 102.5 61.5t83.5 153.5l13 -4q-37 -138 -116.5 -221.5t-178.5 -83.5q-152 0 -152 172 q0 44 10 98z" />
<glyph unicode="m" horiz-adv-x="1599" d="M68 0l106 604q28 145 28 217q0 29 -4 47q-11 43 -64 43q-23 0 -54 -8l-2 17l342 104l8 -6l-70 -383q64 195 160.5 294t220.5 99q116 0 158 -84q24 -49 25 -120q0 -51 -13 -113l-4 -19q130 336 361 336q116 0 158 -84q25 -49 25 -119q0 -51 -13 -114l-97 -459 q-12 -55 -12 -92q1 -22 5 -40q12 -44 61 -44q52 0 101 56t89 159l12 -4q-35 -137 -118 -221t-183 -84q-88 0 -128 65q-23 37 -23 99q0 45 12 102l90 405q16 69 16 123q0 40 -9 71q-21 73 -93 73q-80 0 -154 -93.5t-126 -279.5l-101 -547h-182l121 653q17 70 17 124 q0 38 -8 69q-20 74 -95 74q-98 0 -183.5 -138t-134.5 -407l-65 -375h-180z" />
<glyph unicode="n" horiz-adv-x="1124" d="M82 0l106 604q28 155 28 226q0 28 -4 44q-10 37 -61 37q-24 0 -57 -8l-2 17l342 104l8 -6l-71 -393q67 199 169.5 301t231.5 102q120 0 166 -84q27 -50 27 -122q0 -50 -13 -111l-96 -459q-12 -54 -12 -91q0 -85 63 -85q54 0 103.5 56t89.5 159l12 -4 q-35 -136 -118.5 -220.5t-182.5 -84.5q-90 0 -129 65q-22 37 -22 98q0 45 12 103l88 405q16 72 16 124q0 143 -117 143q-98 0 -191 -141t-140 -404l-66 -375h-180z" />
<glyph unicode="o" horiz-adv-x="995" d="M66 471q-9 -62 -9 -117q0 -148 65 -242q89 -128 277 -128q207 0 349.5 144.5t179.5 391.5q10 67 10 127q0 68 -13 126q-25 110 -106.5 177.5t-214.5 67.5q-207 0 -353 -147t-185 -400zM258 275q-1 25 -2 51q0 101 20 225q35 214 106.5 324t174.5 110q63 0 106 -41.5 t61 -114.5q18 -69 18 -158v-10q-1 -95 -21 -206q-41 -223 -118 -333t-173 -110q-76 0 -121 71.5t-51 191.5z" />
<glyph unicode="p" horiz-adv-x="1044" d="M-109 -430l3 14q60 0 92.5 37t50.5 137l151 846q10 59 16.5 100.5t9.5 77.5t2.5 58t-6 39t-14 24.5t-24.5 10t-33.5 -0.5t-44.5 -10l-2 17l342 104l6 -6q-46 -261 -67 -379q66 189 164 287t208 98q151 0 212 -136q36 -79 36 -195q0 -83 -18 -183q-40 -232 -169 -380 t-317 -148q-131 0 -217 86l-55 -310q-6 -36 -6 -64q0 -49 19 -72q30 -38 112 -38l-2 -14h-449zM283 125q37 -54 92 -88.5t106 -34.5q101 0 181 136t116 337q22 128 22 219q0 226 -138 226q-111 0 -199.5 -139t-134.5 -406z" />
<glyph unicode="q" horiz-adv-x="999" d="M68 483q44 246 174.5 393.5t324.5 147.5q116 0 213 -51l181 51l8 -6l-221 -1262q-6 -37 -6 -66q0 -45 16 -68q25 -38 88 -38l-2 -14h-449l2 14q80 0 116 34t54 136l107 604q-67 -190 -157 -282t-206 -92q-149 0 -217 132q-41 83 -41 205q0 74 15 162zM263 194 q35 -112 132 -112q143 0 237 226t122 626q-79 70 -174 70q-120 0 -200 -120t-116 -339q-18 -121 -18 -210q0 -86 17 -141z" />
<glyph unicode="r" horiz-adv-x="796" d="M88 0l107 604q14 77 20.5 125t7.5 87.5t-5 58.5t-22.5 29.5t-39.5 9t-60 -10.5l-4 17l346 104l6 -6l-59 -354q58 188 131 274t168 86q74 0 116 -46q37 -41 37 -98q0 -8 -1 -16q-6 -60 -40.5 -92.5t-78.5 -32.5q-38 0 -65.5 21t-30.5 47q57 33 57 94q0 57 -55 57 q-84 0 -166 -171.5t-138 -497.5v-2l-51 -287h-180z" />
<glyph unicode="s" horiz-adv-x="827" d="M29 221q10 40 36 61t60 21q38 0 62.5 -20.5t29.5 -46.5q-57 -29 -57 -99q2 -56 49 -96.5t133 -40.5t147 51.5t70 128.5q1 10 1 20q0 36 -18 70q-22 43 -62.5 77t-90 68.5t-99 72t-88.5 78.5q-40 42 -60 98q-14 39 -14 82q0 19 3 38q15 109 109.5 174.5t228.5 65.5 q135 0 209 -57q66 -51 66 -119q0 -8 -1 -17q-4 -42 -31 -67t-65 -25t-64 21t-28 49q23 13 37 38.5t14 53.5q0 42 -37.5 72.5t-109.5 30.5q-82 0 -133 -43.5t-56 -110.5q0 -5 -1 -10q0 -45 24 -87q26 -46 68.5 -81.5t94 -70t101 -70.5t89.5 -75q38 -40 58 -94q12 -34 13 -71 q0 -21 -4 -43q-15 -84 -74 -146t-140 -92t-171 -30q-155 0 -239 72q-65 56 -65 127q0 20 5 42z" />
<glyph unicode="t" horiz-adv-x="714" d="M96 938l2 18q111 22 226.5 109t164.5 188l13 -6l-47 -252h293l2 -4l-23 -53h-283l-120 -659q-8 -45 -8 -79q0 -124 100 -124q147 0 246 215l14 -4q-49 -143 -146.5 -223t-205.5 -80t-160 68q-36 47 -36 125q0 34 7 75l123 686h-162z" />
<glyph unicode="u" horiz-adv-x="1181" d="M106 920l334 104l9 -6l-119 -660q-11 -60 -11 -106q-1 -59 17 -97q30 -67 110 -67q100 0 177.5 109.5t117.5 320.5l39 225q10 54 10 90q0 42 -13 62q-14 21 -52 21q-28 0 -70 -11l-2 15l351 104l8 -6l-135 -766q-9 -52 -10 -88q-1 -26 5 -44q12 -44 58 -44q103 0 192 215 l13 -4q-37 -137 -117.5 -222t-173.5 -85q-92 0 -133 64q-27 41 -27 112q0 38 8 84l6 36q-58 -142 -142.5 -218t-190.5 -76q-125 0 -187 90q-41 61 -41 158q0 47 10 102l68 383q14 78 14 124q0 37 -9 54q-12 23 -48 23q-25 0 -61 -11z" />
<glyph unicode="v" horiz-adv-x="962" d="M76 987l2 17h440l-2 -17q-96 1 -116 -41q-7 -16 -8 -42q0 -42 20 -109l145 -600l152 258q109 184 112 350q0 21 -3.5 39t-13 35.5t-30 26.5t-49.5 5q-1 10 -1 19q0 39 24 66q30 34 73 34q52 0 80.5 -36.5t28.5 -92.5q0 -125 -158 -387l-311 -512h-43l-185 739 q-36 148 -68.5 198t-88.5 50z" />
<glyph unicode="w" horiz-adv-x="1517" d="M76 987l2 17h463l-2 -17q-91 1 -123 -43q-17 -23 -17 -64q0 -36 13 -85l153 -609l-18 -32l272 460l-31 125q-37 149 -68.5 198.5t-88.5 49.5l2 17h440l-2 -17q-95 1 -115 -41q-8 -16 -8 -43q0 -41 19 -108l145 -600l152 258q109 182 112 350q0 21 -3.5 39t-13 35.5 t-30 26.5t-49.5 5q-1 10 -1 19q0 38 23 65q29 33 74 33q52 0 80.5 -35.5t28.5 -91.5q0 -125 -158 -387l-311 -512h-43l-146 586l-350 -586h-45l-199 739q-38 149 -69.5 198.5t-87.5 49.5z" />
<glyph unicode="x" horiz-adv-x="1032" d="M39 71q1 47 37 107q38 62 131 154l201 200l-154 316q-39 82 -72.5 110.5t-95.5 28.5l2 17h485l-2 -17q-87 0 -123 -32q-20 -17 -20 -44q0 -22 14 -51l172 -352l111 119q62 67 94.5 133.5t32.5 113.5q-2 26 -18.5 42.5t-45.5 13.5q0 43 26.5 68.5t68.5 25.5 q40 0 64.5 -23.5t25.5 -64.5v-5q-1 -47 -39 -109q-40 -64 -143 -165l-166 -165l163 -336q41 -82 75 -111t95 -29l-2 -16h-485l2 16q88 0 122 32q17 16 17 40t-16 55l-180 373l-127 -137q-64 -69 -96.5 -136.5t-32.5 -115.5q0 -26 16 -42t45 -13q0 -44 -26 -69.5t-68 -25.5 q-39 0 -63 24q-25 25 -25 70z" />
<glyph unicode="y" horiz-adv-x="944" d="M-182 -264q7 51 40 80.5t79 29.5q40 0 63 -25q20 -22 20 -51v-8q-35 -10 -54 -32t-19 -49q0 -30 20.5 -48t57.5 -18q73 0 145.5 69t163.5 216l63 100h-8l-184 739q-36 147 -69 197.5t-89 50.5l2 17h440l-4 -17q-95 0 -115 -41q-8 -17 -8 -43q0 -42 19 -108l147 -600 l152 258q110 183 113 350q0 21 -4 39t-13.5 35.5t-30 26.5t-49.5 5q-1 10 -1 19q0 38 23 65q30 33 75 33q51 0 79.5 -35.5t28.5 -91.5q0 -125 -158 -387l-309 -504h2l-76 -119q-100 -159 -191 -244t-189 -85q-87 0 -130 48q-35 39 -35 95q0 16 3 33z" />
<glyph unicode="z" horiz-adv-x="843" d="M-8 94q0 132 207 277l338 250q94 72 137 123t55 102l-334 2q-61 0 -97 -3.5t-60 -11.5t-30.5 -26t-4.5 -40.5t14 -61.5l-12 -7l-86 291l4 6q176 -10 337 -10q143 0 275 8l21 -12q14 -37 14 -74q0 -53 -28 -105q-46 -88 -173 -184l-360 -270q-98 -75 -125 -123 q36 12 81 12q24 1 51 -3q77 -10 136.5 -29.5t131 -38.5t114.5 -19q97 0 100 89q0 62 -51 104l8 8q49 -34 80 -84t31 -104q0 -78 -46 -129t-128 -51q-52 0 -123.5 22.5t-130 50t-125.5 50t-111 22.5q-36 0 -57.5 -17t-21.5 -47q1 -33 27 -45q9 -4 20 -4q24 0 59 15 q13 -23 0.5 -39.5t-37.5 -16.5q-42 0 -71 34.5t-29 88.5z" />
<glyph unicode="{" horiz-adv-x="823" d="M121 563l4 17h57q197 0 228 186q12 74 -1 202t-26.5 220.5t0.5 195.5q29 183 276 183q70 0 172 -27l-4 -12q-39 10 -84 10q-142 0 -174 -158q-17 -77 -15 -297t-13 -297q-19 -96 -76.5 -152.5t-147.5 -66.5q87 -15 132 -75t45 -154q0 -84 -54.5 -296t-54.5 -298 q0 -166 147 -166q43 0 84 10l2 -12q-80 -27 -188 -27q-114 0 -175.5 49.5t-61.5 147.5q0 61 25 150.5t55.5 166.5t55.5 167t25 153q0 180 -184 180h-49z" />
<glyph unicode="}" horiz-adv-x="823" d="M-8 -479l4 12q39 -10 82 -10q145 0 176 158q15 76 14.5 296t14.5 297q19 95 75 151.5t144 68.5q-86 15 -130 75.5t-44 153.5q0 82 54 294.5t54 299.5q0 166 -145 166q-45 0 -84 -10l-2 10q80 28 186 28q116 0 178 -49t62 -147q0 -62 -25.5 -152t-56.5 -167t-56.5 -167 t-25.5 -153q0 -178 186 -178h47l-4 -17h-57q-194 0 -225 -186q-12 -74 1 -202t26 -221t-1 -196q-33 -182 -276 -182q-80 0 -172 27z" />
<glyph unicode="&#xa1;" horiz-adv-x="598" d="M20 -289q14 78 59 205t100.5 308t94.5 388h19q-30 -161 -42.5 -312t-11.5 -243t-1 -187.5t-13 -158.5q-23 -139 -127 -139t-78 139zM213 928q10 58 52.5 93.5t99.5 35.5q59 0 87.5 -35.5t18.5 -93.5q-11 -59 -52.5 -94t-99.5 -35q-59 0 -87.5 35.5t-18.5 93.5z" />
<glyph unicode="&#xa2;" horiz-adv-x="1228" />
<glyph unicode="&#xa3;" horiz-adv-x="1304" />
<glyph unicode="&#xa5;" horiz-adv-x="1228" />
<glyph unicode="&#xab;" horiz-adv-x="1417" />
<glyph unicode="&#xad;" d="M121 588l10 71h385l-10 -71h-385z" />
<glyph unicode="&#xb7;" horiz-adv-x="593" d="M125 690q11 59 52 94t99 35q59 0 88 -35.5t19 -93.5t-52.5 -93.5t-99.5 -35.5q-59 0 -87.5 35.5t-18.5 93.5z" />
<glyph unicode="&#xbb;" horiz-adv-x="1417" />
<glyph unicode="&#xbf;" horiz-adv-x="839" d="M-12 -119q9 54 41.5 104.5t76.5 90t95.5 77.5t101.5 75.5t91 75t67 84t28 95.5q3 67 -43 119l13 6q45 -25 71.5 -63.5t26.5 -79.5q0 -55 -19.5 -108t-50.5 -97t-69.5 -86.5t-78.5 -84t-74.5 -82.5t-60 -89.5t-32.5 -97.5q-14 -87 35 -150t145 -63q77 0 122 44t43.5 100 t-44.5 91q14 35 46 56.5t73 21.5q46 0 70.5 -33t15.5 -88q-15 -91 -109.5 -152t-230.5 -61q-172 0 -273 78t-77 217zM375 924q10 58 52 93.5t101 35.5q57 0 86 -35.5t19 -93.5q-11 -59 -52.5 -94t-99.5 -35q-59 0 -87.5 35.5t-18.5 93.5z" />
<glyph unicode="&#x2000;" horiz-adv-x="784" />
<glyph unicode="&#x2001;" horiz-adv-x="1569" />
<glyph unicode="&#x2002;" horiz-adv-x="784" />
<glyph unicode="&#x2003;" horiz-adv-x="1569" />
<glyph unicode="&#x2004;" horiz-adv-x="523" />
<glyph unicode="&#x2005;" horiz-adv-x="392" />
<glyph unicode="&#x2006;" horiz-adv-x="261" />
<glyph unicode="&#x2007;" horiz-adv-x="261" />
<glyph unicode="&#x2008;" horiz-adv-x="196" />
<glyph unicode="&#x2009;" horiz-adv-x="313" />
<glyph unicode="&#x200a;" horiz-adv-x="87" />
<glyph unicode="&#x2010;" d="M121 588l10 71h385l-10 -71h-385z" />
<glyph unicode="&#x2011;" d="M121 588l10 71h385l-10 -71h-385z" />
<glyph unicode="&#x2012;" d="M121 588l10 71h385l-10 -71h-385z" />
<glyph unicode="&#x2013;" horiz-adv-x="1159" d="M100 610l11 60h995l-10 -60h-996z" />
<glyph unicode="&#x2014;" horiz-adv-x="1773" d="M100 610l11 60h1611l-12 -60h-1610z" />
<glyph unicode="&#x2018;" horiz-adv-x="532" d="M82 1241q24 87 114.5 157.5t217.5 88.5l4 -12q-102 -25 -163.5 -82t-66.5 -129q21 12 45 12q53 0 80.5 -38.5t16.5 -96.5q-9 -52 -45 -81.5t-88 -29.5q-64 0 -101 59t-14 152z" />
<glyph unicode="&#x2019;" horiz-adv-x="532" d="M72 1102q103 26 164.5 82.5t64.5 128.5q-23 -10 -45 -10q-54 0 -80.5 38t-15.5 97q9 50 45 79t88 29q64 0 101 -59t14 -152q-24 -87 -114.5 -157t-217.5 -88z" />
<glyph unicode="&#x201a;" horiz-adv-x="536" d="M27 -209q104 25 166 82t65 129q-23 -10 -45 -10q-53 0 -80 37.5t-16 95.5q9 52 45 81.5t86 29.5q64 0 101.5 -59t15.5 -152q-24 -87 -115 -157.5t-219 -88.5z" />
<glyph unicode="&#x201c;" horiz-adv-x="823" d="M125 1241q23 87 113 157.5t219 88.5l4 -12q-103 -26 -165 -82.5t-65 -128.5q23 10 45 10q54 0 81 -38t16 -95q-9 -52 -45 -81.5t-88 -29.5q-64 0 -101 59t-14 152zM459 1241q24 87 114.5 157.5t217.5 88.5l4 -12q-103 -26 -165 -82.5t-65 -128.5q23 10 45 10q54 0 81 -38 t16 -95q-9 -52 -45.5 -81.5t-88.5 -29.5q-64 0 -101 59t-13 152z" />
<glyph unicode="&#x201d;" horiz-adv-x="866" d="M72 1102q103 26 164.5 82.5t64.5 128.5q-23 -10 -45 -10q-53 0 -80 37.5t-16 95.5q9 52 45 81t88 29q64 0 101 -59t14 -152q-24 -87 -114.5 -157t-217.5 -88zM406 1102q103 26 164.5 82.5t64.5 128.5q-23 -10 -45 -10q-53 0 -80 37.5t-16 95.5q9 52 45 81t88 29 q64 0 101 -59t13 -152q-23 -87 -112.5 -157t-218.5 -88z" />
<glyph unicode="&#x201e;" horiz-adv-x="866" d="M72 -209q103 26 164.5 82.5t64.5 128.5q-23 -10 -45 -10q-53 0 -80 37.5t-16 95.5q9 52 45 81.5t88 29.5q64 0 101 -59t14 -152q-24 -87 -114.5 -157.5t-217.5 -88.5zM406 -209q103 26 164.5 82.5t64.5 128.5q-23 -10 -45 -10q-53 0 -80 37.5t-16 95.5q9 52 45 81.5 t88 29.5q64 0 101 -59t13 -152q-23 -87 -113 -157.5t-218 -88.5z" />
<glyph unicode="&#x2022;" horiz-adv-x="765" d="M166 655q10 98 77 158.5t163 60.5q97 0 151.5 -60.5t44.5 -158.5q-10 -97 -78 -157t-164 -60q-97 0 -150.5 59.5t-43.5 157.5z" />
<glyph unicode="&#x2026;" horiz-adv-x="1048" d="M168 117q11 59 52 94t99 35q60 0 87 -35q41 35 98 35q59 0 86 -35q41 35 98 35q59 0 88 -35.5t19 -93.5q-11 -59 -52.5 -94t-99.5 -35q-59 0 -86 35q-41 -35 -98 -35q-59 0 -86 35q-41 -35 -99 -35q-59 0 -87.5 35.5t-18.5 93.5z" />
<glyph unicode="&#x202f;" horiz-adv-x="313" />
<glyph unicode="&#x2039;" horiz-adv-x="1105" d="M487 539q228 194 394 381l16 -15q-129 -241 -242 -368q80 -117 193 -371l-19 -14q-203 255 -342 387z" />
<glyph unicode="&#x203a;" horiz-adv-x="1105" d="M209 168q113 221 240 367q-88 134 -191 372l18 15q203 -255 342 -387q-225 -190 -393 -381z" />
<glyph unicode="&#x205f;" horiz-adv-x="392" />
<glyph unicode="&#x20ac;" horiz-adv-x="1357" d="M82 580l4 28h203q3 43 12 94q4 24 16 80h-215l4 29h218q49 186 144 329.5t233.5 228.5t299.5 85q84 0 151.5 -25.5t106 -66.5t53.5 -93t1 -106q-10 -38 -45 -68t-80 -30q-42 0 -71.5 25t-31.5 59q67 41 78 117q11 70 -37.5 114.5t-138.5 44.5q-171 0 -300 -157.5 t-183 -456.5h610l-4 -29h-610q-17 -104 -17 -174h611l-4 -28h-607q3 -224 104 -351t267 -127q234 0 434 240l8 -14q-96 -160 -241 -252t-316 -92q-103 0 -190 39.5t-149 113t-92.5 187.5t-20.5 256h-205z" />
<glyph unicode="&#x25fc;" horiz-adv-x="1024" d="M0 0v1024h1024v-1024h-1024z" />
</font>
</defs>
</svg>
